<svg width="29" height="26" viewBox="0 0 29 26" fill="none" xmlns="http://www.w3.org/2000/svg">
<rect x="1.5" y="0.75" width="26.75" height="24.5" rx="3.25" fill="white"/>
<path d="M20.5625 6.875H17.2812L17.0078 6.38281C16.8984 6.16406 16.6797 6 16.4336 6H13.2891C13.043 6 12.8242 6.16406 12.7148 6.38281L12.4688 6.875H9.1875C8.94141 6.875 8.75 7.09375 8.75 7.3125V8.1875C8.75 8.43359 8.94141 8.625 9.1875 8.625H20.5625C20.7812 8.625 21 8.43359 21 8.1875V7.3125C21 7.09375 20.7812 6.875 20.5625 6.875ZM10.1992 18.7695C10.2266 19.4805 10.8008 20 11.5117 20H18.2109C18.9219 20 19.4961 19.4805 19.5234 18.7695L20.125 9.5H9.625L10.1992 18.7695Z" fill="#ADB5BD"/>
<rect x="1.5" y="0.75" width="26.75" height="24.5" rx="3.25" stroke="#F1F3F5" stroke-width="1.5"/>
</svg>
